<mxfile host="Electron" agent="Mozilla/5.0 (Windows NT 10.0; Win64; x64) AppleWebKit/537.36 (KHTML, like Gecko) draw.io/27.0.5 Chrome/134.0.6998.205 Electron/35.3.0 Safari/537.36" version="27.0.5" pages="7">
  <diagram name="Infrastructure-Overview" id="9NX4Y1rs3swdtg5DZFtk">
    <mxGraphModel dx="891" dy="562" grid="1" gridSize="10" guides="1" tooltips="1" connect="1" arrows="1" fold="1" page="1" pageScale="1" pageWidth="850" pageHeight="1100" background="light-dark(#FFFFFF,#121212)" math="0" shadow="0">
      <root>
        <mxCell id="0" />
        <mxCell id="1" parent="0" />
      </root>
    </mxGraphModel>
  </diagram>
  <diagram id="Q984rNwGfa7J2Oc1cBfp" name="Infra-Overview-v1">
    <mxGraphModel dx="1782" dy="2224" grid="1" gridSize="10" guides="1" tooltips="1" connect="1" arrows="1" fold="1" page="1" pageScale="1" pageWidth="850" pageHeight="1100" background="light-dark(#FFFFFF,#121212)" math="0" shadow="0">
      <root>
        <mxCell id="0" />
        <mxCell id="1" parent="0" />
        <mxCell id="DLzOx-_O90NdRR9GKNdW-7" value="" style="edgeStyle=orthogonalEdgeStyle;rounded=0;orthogonalLoop=1;jettySize=auto;html=1;" edge="1" parent="1" source="DLzOx-_O90NdRR9GKNdW-33" target="DLzOx-_O90NdRR9GKNdW-6">
          <mxGeometry relative="1" as="geometry" />
        </mxCell>
        <mxCell id="DLzOx-_O90NdRR9GKNdW-65" style="edgeStyle=orthogonalEdgeStyle;rounded=0;orthogonalLoop=1;jettySize=auto;html=1;exitX=0.5;exitY=0;exitDx=0;exitDy=0;entryX=0.5;entryY=1;entryDx=0;entryDy=0;" edge="1" parent="1" source="DLzOx-_O90NdRR9GKNdW-1" target="DLzOx-_O90NdRR9GKNdW-56">
          <mxGeometry relative="1" as="geometry" />
        </mxCell>
        <mxCell id="DLzOx-_O90NdRR9GKNdW-1" value="Terraform CLI (Local)" style="rounded=0;whiteSpace=wrap;html=1;fillColor=default;gradientColor=none;strokeColor=light-dark(#000000,#9933FF);" vertex="1" parent="1">
          <mxGeometry y="260" width="120" height="60" as="geometry" />
        </mxCell>
        <mxCell id="DLzOx-_O90NdRR9GKNdW-2" value="&lt;i&gt;Runs init, plan, apply&lt;/i&gt;" style="text;html=1;align=center;verticalAlign=middle;whiteSpace=wrap;rounded=0;strokeColor=#CCCCCC;" vertex="1" parent="1">
          <mxGeometry y="330" width="120" height="30" as="geometry" />
        </mxCell>
        <mxCell id="DLzOx-_O90NdRR9GKNdW-6" value="AWS Provider" style="rounded=0;whiteSpace=wrap;html=1;strokeColor=light-dark(#000000,#0000FF);" vertex="1" parent="1">
          <mxGeometry x="210" y="260" width="120" height="60" as="geometry" />
        </mxCell>
        <mxCell id="DLzOx-_O90NdRR9GKNdW-8" value="" style="shape=image;verticalLabelPosition=bottom;labelBackgroundColor=default;verticalAlign=top;aspect=fixed;imageAspect=0;image=https://www.svgrepo.com/show/448266/aws.svg;sketch=1;curveFitting=1;jiggle=2;shadow=1;" vertex="1" parent="1">
          <mxGeometry x="240" y="180" width="70" height="70" as="geometry" />
        </mxCell>
        <mxCell id="DLzOx-_O90NdRR9GKNdW-14" value="" style="edgeStyle=orthogonalEdgeStyle;rounded=0;orthogonalLoop=1;jettySize=auto;html=1;" edge="1" parent="1" source="DLzOx-_O90NdRR9GKNdW-35" target="DLzOx-_O90NdRR9GKNdW-10">
          <mxGeometry relative="1" as="geometry" />
        </mxCell>
        <mxCell id="DLzOx-_O90NdRR9GKNdW-9" value="&lt;i&gt;Authenticates with IAM credentials&lt;/i&gt;" style="text;html=1;align=center;verticalAlign=middle;whiteSpace=wrap;rounded=0;strokeColor=#CCCCCC;" vertex="1" parent="1">
          <mxGeometry x="210" y="330" width="120" height="30" as="geometry" />
        </mxCell>
        <mxCell id="DLzOx-_O90NdRR9GKNdW-10" value="S3 Bucket" style="shape=cylinder3;whiteSpace=wrap;html=1;boundedLbl=1;backgroundOutline=1;size=15;" vertex="1" parent="1">
          <mxGeometry x="240" y="430" width="60" height="80" as="geometry" />
        </mxCell>
        <mxCell id="DLzOx-_O90NdRR9GKNdW-12" value="&lt;i&gt;Randomized name via random_id&lt;/i&gt;" style="text;html=1;align=center;verticalAlign=middle;whiteSpace=wrap;rounded=0;strokeColor=#CCCCCC;" vertex="1" parent="1">
          <mxGeometry x="230" y="520" width="80" height="50" as="geometry" />
        </mxCell>
        <mxCell id="DLzOx-_O90NdRR9GKNdW-13" value="&lt;i&gt;Public access blocked&lt;/i&gt;" style="text;html=1;align=center;verticalAlign=middle;whiteSpace=wrap;rounded=0;strokeColor=#CCCCCC;" vertex="1" parent="1">
          <mxGeometry x="230" y="580" width="80" height="50" as="geometry" />
        </mxCell>
        <mxCell id="DLzOx-_O90NdRR9GKNdW-15" value="IAM Credentials" style="whiteSpace=wrap;html=1;rounded=0;strokeColor=light-dark(#000000,#FF0000);" vertex="1" parent="1">
          <mxGeometry y="110" width="120" height="60" as="geometry" />
        </mxCell>
        <mxCell id="DLzOx-_O90NdRR9GKNdW-17" value="&lt;i&gt;Access key + secret key&lt;/i&gt;" style="text;html=1;align=center;verticalAlign=middle;whiteSpace=wrap;rounded=0;strokeColor=#CCCCCC;" vertex="1" parent="1">
          <mxGeometry y="70" width="120" height="30" as="geometry" />
        </mxCell>
        <mxCell id="DLzOx-_O90NdRR9GKNdW-18" value="&lt;i&gt;No root user&lt;/i&gt;" style="text;html=1;align=center;verticalAlign=middle;whiteSpace=wrap;rounded=0;strokeColor=#CCCCCC;" vertex="1" parent="1">
          <mxGeometry y="30" width="120" height="30" as="geometry" />
        </mxCell>
        <mxCell id="DLzOx-_O90NdRR9GKNdW-24" value="&lt;h1 style=&quot;margin-top: 0px;&quot;&gt;Infrastructure Overview - Phase 1&lt;/h1&gt;&lt;div&gt;Terraform IaC to S3&lt;/div&gt;" style="text;html=1;whiteSpace=wrap;overflow=hidden;rounded=0;" vertex="1" parent="1">
          <mxGeometry x="10" y="-120" width="840" height="120" as="geometry" />
        </mxCell>
        <mxCell id="DLzOx-_O90NdRR9GKNdW-34" value="" style="edgeStyle=orthogonalEdgeStyle;rounded=0;orthogonalLoop=1;jettySize=auto;html=1;" edge="1" parent="1" source="DLzOx-_O90NdRR9GKNdW-1" target="DLzOx-_O90NdRR9GKNdW-33">
          <mxGeometry relative="1" as="geometry">
            <mxPoint x="130" y="290" as="sourcePoint" />
            <mxPoint x="210" y="290" as="targetPoint" />
          </mxGeometry>
        </mxCell>
        <mxCell id="DLzOx-_O90NdRR9GKNdW-33" value="API Call" style="text;html=1;align=center;verticalAlign=middle;whiteSpace=wrap;rounded=0;" vertex="1" parent="1">
          <mxGeometry x="140" y="275" width="60" height="30" as="geometry" />
        </mxCell>
        <mxCell id="DLzOx-_O90NdRR9GKNdW-36" value="" style="edgeStyle=orthogonalEdgeStyle;rounded=0;orthogonalLoop=1;jettySize=auto;html=1;" edge="1" parent="1" source="DLzOx-_O90NdRR9GKNdW-9" target="DLzOx-_O90NdRR9GKNdW-35">
          <mxGeometry relative="1" as="geometry">
            <mxPoint x="270" y="360" as="sourcePoint" />
            <mxPoint x="270" y="410" as="targetPoint" />
          </mxGeometry>
        </mxCell>
        <mxCell id="DLzOx-_O90NdRR9GKNdW-35" value="Provision" style="text;html=1;align=center;verticalAlign=middle;whiteSpace=wrap;rounded=0;" vertex="1" parent="1">
          <mxGeometry x="240" y="380" width="60" height="30" as="geometry" />
        </mxCell>
        <mxCell id="DLzOx-_O90NdRR9GKNdW-43" value="Terraform Output" style="rounded=1;whiteSpace=wrap;html=1;" vertex="1" parent="1">
          <mxGeometry x="420" y="610" width="120" height="60" as="geometry" />
        </mxCell>
        <mxCell id="DLzOx-_O90NdRR9GKNdW-44" value="&lt;i&gt;Bucket Name&lt;/i&gt;" style="text;html=1;align=center;verticalAlign=middle;whiteSpace=wrap;rounded=0;strokeColor=#CCCCCC;" vertex="1" parent="1">
          <mxGeometry x="420" y="690" width="120" height="40" as="geometry" />
        </mxCell>
        <mxCell id="DLzOx-_O90NdRR9GKNdW-45" value="&lt;i&gt;Bucket ARN&lt;/i&gt;" style="text;html=1;align=center;verticalAlign=middle;whiteSpace=wrap;rounded=0;strokeColor=#CCCCCC;" vertex="1" parent="1">
          <mxGeometry x="420" y="730" width="120" height="30" as="geometry" />
        </mxCell>
        <mxCell id="DLzOx-_O90NdRR9GKNdW-46" value="&lt;i&gt;Region&lt;/i&gt;" style="text;html=1;align=center;verticalAlign=middle;whiteSpace=wrap;rounded=0;strokeColor=#CCCCCC;" vertex="1" parent="1">
          <mxGeometry x="420" y="760" width="120" height="30" as="geometry" />
        </mxCell>
        <mxCell id="DLzOx-_O90NdRR9GKNdW-66" style="edgeStyle=orthogonalEdgeStyle;rounded=0;orthogonalLoop=1;jettySize=auto;html=1;exitX=0.5;exitY=0;exitDx=0;exitDy=0;entryX=0.5;entryY=1;entryDx=0;entryDy=0;" edge="1" parent="1" source="DLzOx-_O90NdRR9GKNdW-56" target="DLzOx-_O90NdRR9GKNdW-15">
          <mxGeometry relative="1" as="geometry" />
        </mxCell>
        <mxCell id="DLzOx-_O90NdRR9GKNdW-56" value="Authenticate" style="text;html=1;align=center;verticalAlign=middle;whiteSpace=wrap;rounded=0;" vertex="1" parent="1">
          <mxGeometry x="30" y="200" width="60" height="30" as="geometry" />
        </mxCell>
        <mxCell id="DLzOx-_O90NdRR9GKNdW-73" style="edgeStyle=orthogonalEdgeStyle;rounded=0;orthogonalLoop=1;jettySize=auto;html=1;exitX=0;exitY=0.5;exitDx=0;exitDy=0;" edge="1" parent="1" source="DLzOx-_O90NdRR9GKNdW-67">
          <mxGeometry relative="1" as="geometry">
            <mxPoint x="280" y="50" as="targetPoint" />
          </mxGeometry>
        </mxCell>
        <mxCell id="DLzOx-_O90NdRR9GKNdW-78" style="edgeStyle=orthogonalEdgeStyle;rounded=0;orthogonalLoop=1;jettySize=auto;html=1;exitX=1;exitY=0.5;exitDx=0;exitDy=0;" edge="1" parent="1" source="DLzOx-_O90NdRR9GKNdW-67">
          <mxGeometry relative="1" as="geometry">
            <mxPoint x="700" y="40" as="targetPoint" />
          </mxGeometry>
        </mxCell>
        <mxCell id="DLzOx-_O90NdRR9GKNdW-67" value="&lt;i&gt;AWS&lt;/i&gt;" style="text;html=1;align=center;verticalAlign=middle;whiteSpace=wrap;rounded=0;" vertex="1" parent="1">
          <mxGeometry x="360" width="260" height="30" as="geometry" />
        </mxCell>
        <mxCell id="DLzOx-_O90NdRR9GKNdW-74" style="edgeStyle=orthogonalEdgeStyle;rounded=0;orthogonalLoop=1;jettySize=auto;html=1;exitX=0;exitY=1;exitDx=0;exitDy=0;" edge="1" parent="1" source="DLzOx-_O90NdRR9GKNdW-69">
          <mxGeometry relative="1" as="geometry">
            <mxPoint x="280" y="70" as="targetPoint" />
          </mxGeometry>
        </mxCell>
        <mxCell id="DLzOx-_O90NdRR9GKNdW-80" style="edgeStyle=orthogonalEdgeStyle;rounded=0;orthogonalLoop=1;jettySize=auto;html=1;exitX=1;exitY=1;exitDx=0;exitDy=0;" edge="1" parent="1" source="DLzOx-_O90NdRR9GKNdW-69">
          <mxGeometry relative="1" as="geometry">
            <mxPoint x="700" y="70" as="targetPoint" />
          </mxGeometry>
        </mxCell>
        <mxCell id="DLzOx-_O90NdRR9GKNdW-69" value="&lt;i&gt;IAM Credentials, Provider, S3 Bucket&lt;/i&gt;" style="text;html=1;align=center;verticalAlign=middle;whiteSpace=wrap;rounded=0;" vertex="1" parent="1">
          <mxGeometry x="310" y="50" width="360" height="30" as="geometry" />
        </mxCell>
      </root>
    </mxGraphModel>
  </diagram>
  <diagram id="b7A8_yoqew2T-P5jHb7F" name="Infra-Overview-v2">
    <mxGraphModel dx="891" dy="562" grid="1" gridSize="10" guides="1" tooltips="1" connect="1" arrows="1" fold="1" page="1" pageScale="1" pageWidth="850" pageHeight="1100" math="0" shadow="0">
      <root>
        <mxCell id="0" />
        <mxCell id="1" parent="0" />
      </root>
    </mxGraphModel>
  </diagram>
  <diagram id="FlMVzF6VJFtiRSmgi_Qk" name="CI/CD-Pipeline">
    <mxGraphModel dx="891" dy="562" grid="1" gridSize="10" guides="1" tooltips="1" connect="1" arrows="1" fold="1" page="1" pageScale="1" pageWidth="850" pageHeight="1100" background="light-dark(#FFFFFF,#121212)" math="0" shadow="0">
      <root>
        <mxCell id="0" />
        <mxCell id="1" parent="0" />
      </root>
    </mxGraphModel>
  </diagram>
  <diagram id="l2Ya2miy50hrUVUxtnsu" name="CI/CD-Pipeline-v1">
    <mxGraphModel dx="521" dy="865" grid="1" gridSize="10" guides="1" tooltips="1" connect="1" arrows="1" fold="1" page="1" pageScale="1" pageWidth="850" pageHeight="1100" math="0" shadow="0">
      <root>
        <mxCell id="0" />
        <mxCell id="1" parent="0" />
        <mxCell id="PqTkPSH0EmULnEZXShBk-15" value="&lt;h1 style=&quot;margin-top: 0px;&quot;&gt;CI/CD Pipeline - Phase 2&lt;/h1&gt;" style="text;html=1;whiteSpace=wrap;overflow=hidden;rounded=0;" vertex="1" parent="1">
          <mxGeometry x="850" y="110" width="840" height="120" as="geometry" />
        </mxCell>
        <mxCell id="PqTkPSH0EmULnEZXShBk-50" style="edgeStyle=orthogonalEdgeStyle;rounded=0;orthogonalLoop=1;jettySize=auto;html=1;exitX=0.5;exitY=1;exitDx=0;exitDy=0;entryX=0.5;entryY=0;entryDx=0;entryDy=0;" edge="1" parent="1" source="PqTkPSH0EmULnEZXShBk-34" target="PqTkPSH0EmULnEZXShBk-35">
          <mxGeometry relative="1" as="geometry" />
        </mxCell>
        <mxCell id="PqTkPSH0EmULnEZXShBk-34" value="[GitHub Repo Push]" style="text;html=1;align=center;verticalAlign=middle;whiteSpace=wrap;rounded=0;strokeColor=default;fontSize=13;fontColor=default;labelBackgroundColor=none;labelBorderColor=none;fillColor=#666666;" vertex="1" parent="1">
          <mxGeometry x="930" y="270" width="460" height="60" as="geometry" />
        </mxCell>
        <mxCell id="PqTkPSH0EmULnEZXShBk-49" style="edgeStyle=orthogonalEdgeStyle;rounded=0;orthogonalLoop=1;jettySize=auto;html=1;exitX=0.5;exitY=1;exitDx=0;exitDy=0;entryX=0.5;entryY=0;entryDx=0;entryDy=0;" edge="1" parent="1" source="PqTkPSH0EmULnEZXShBk-35" target="PqTkPSH0EmULnEZXShBk-38">
          <mxGeometry relative="1" as="geometry" />
        </mxCell>
        <mxCell id="PqTkPSH0EmULnEZXShBk-35" value="[.github/workflows/terraforrm.yml]" style="text;html=1;align=center;verticalAlign=middle;whiteSpace=wrap;rounded=0;strokeColor=default;fontSize=13;fillColor=#007FFF;" vertex="1" parent="1">
          <mxGeometry x="930" y="370" width="460" height="50" as="geometry" />
        </mxCell>
        <mxCell id="PqTkPSH0EmULnEZXShBk-45" style="edgeStyle=orthogonalEdgeStyle;rounded=0;orthogonalLoop=1;jettySize=auto;html=1;exitX=0;exitY=1;exitDx=0;exitDy=0;entryX=0;entryY=0;entryDx=0;entryDy=0;" edge="1" parent="1" source="PqTkPSH0EmULnEZXShBk-38" target="PqTkPSH0EmULnEZXShBk-40">
          <mxGeometry relative="1" as="geometry" />
        </mxCell>
        <mxCell id="PqTkPSH0EmULnEZXShBk-47" style="edgeStyle=orthogonalEdgeStyle;rounded=0;orthogonalLoop=1;jettySize=auto;html=1;exitX=0.5;exitY=1;exitDx=0;exitDy=0;entryX=0.5;entryY=0;entryDx=0;entryDy=0;" edge="1" parent="1" source="PqTkPSH0EmULnEZXShBk-38" target="PqTkPSH0EmULnEZXShBk-43">
          <mxGeometry relative="1" as="geometry" />
        </mxCell>
        <mxCell id="PqTkPSH0EmULnEZXShBk-48" style="edgeStyle=orthogonalEdgeStyle;rounded=0;orthogonalLoop=1;jettySize=auto;html=1;exitX=1;exitY=1;exitDx=0;exitDy=0;entryX=1;entryY=0;entryDx=0;entryDy=0;" edge="1" parent="1" source="PqTkPSH0EmULnEZXShBk-38" target="PqTkPSH0EmULnEZXShBk-41">
          <mxGeometry relative="1" as="geometry" />
        </mxCell>
        <mxCell id="PqTkPSH0EmULnEZXShBk-38" value="GitHub Actions" style="text;html=1;align=center;verticalAlign=middle;whiteSpace=wrap;rounded=0;labelBorderColor=none;strokeColor=default;fontSize=13;strokeWidth=5;" vertex="1" parent="1">
          <mxGeometry x="930" y="460" width="460" height="60" as="geometry" />
        </mxCell>
        <mxCell id="PqTkPSH0EmULnEZXShBk-46" style="edgeStyle=orthogonalEdgeStyle;rounded=0;orthogonalLoop=1;jettySize=auto;html=1;exitX=0.5;exitY=1;exitDx=0;exitDy=0;entryX=0.5;entryY=0;entryDx=0;entryDy=0;" edge="1" parent="1" source="PqTkPSH0EmULnEZXShBk-40" target="PqTkPSH0EmULnEZXShBk-44">
          <mxGeometry relative="1" as="geometry" />
        </mxCell>
        <mxCell id="PqTkPSH0EmULnEZXShBk-40" value="terraform fmt" style="text;html=1;align=center;verticalAlign=middle;whiteSpace=wrap;rounded=0;fontSize=13;strokeColor=none;fillColor=#9933FF;" vertex="1" parent="1">
          <mxGeometry x="930" y="560" width="60" height="30" as="geometry" />
        </mxCell>
        <mxCell id="PqTkPSH0EmULnEZXShBk-41" value="terraform plan" style="text;html=1;align=center;verticalAlign=middle;whiteSpace=wrap;rounded=0;fontSize=13;fillColor=#9933FF;" vertex="1" parent="1">
          <mxGeometry x="1330" y="560" width="60" height="30" as="geometry" />
        </mxCell>
        <mxCell id="PqTkPSH0EmULnEZXShBk-43" value="terraform validate" style="text;html=1;align=center;verticalAlign=middle;whiteSpace=wrap;rounded=0;fontSize=13;strokeColor=none;fillColor=#9933FF;" vertex="1" parent="1">
          <mxGeometry x="1130" y="560" width="60" height="30" as="geometry" />
        </mxCell>
        <mxCell id="PqTkPSH0EmULnEZXShBk-44" value="CI Status badge" style="text;html=1;align=center;verticalAlign=middle;whiteSpace=wrap;rounded=0;fontSize=13;" vertex="1" parent="1">
          <mxGeometry x="930" y="630" width="60" height="30" as="geometry" />
        </mxCell>
        <mxCell id="PqTkPSH0EmULnEZXShBk-51" value="" style="shape=image;verticalLabelPosition=bottom;labelBackgroundColor=default;verticalAlign=top;aspect=fixed;imageAspect=0;image=data:image/png,iVBORw0KGgoAAAANSUhEUgAAAQ8AAACOCAYAAAAvtI33AAAAAXNSR0IArs4c6QAAAARnQU1BAACxjwv8YQUAAAAJcEhZcwAADsMAAA7DAcdvqGQAACSjSURBVHhe7Z13nBRF+oefnp0NszmQlswKgi45LSAgEkSUJAbAExMqioCniJjQE3+o3KkIgiccYkY9EUFFRSSDJJEoIKukJSywbJrNM9P9+6NnZ6d7ZgODEs73+difl3rrrerqmulvV1XXrEpUXA0NQRCEs8RidgiCIFQFEQ9BEAJCxEMQhIAQ8RAEISBEPARBCAgRD0EQAkLEQxCEgBDxEAQhIEQ8BEEICBEPQRACQsRDEISAEPEQBCEgRDwEQQgIEQ9BEAJCxEMQhIAQ8RAEISBEPARBCAgRD0EQAkLEQxCEgBDxEAQhIEQ8BEEICBEPPwxakEraseOe48AnI8whgvCX5w8QjzHM/TXdcLOVd/y2fw9bFs7mmaFNzJUIgnCJ8QeIR9UJjYilVsoARr22mv3Lp/FgvXxziCAIlwjnVTy8sTUbyrNLFvNoXbs5SxCES4A/RTyyt37G4gVfeI4vvv6RHUdzzWE4E3ow5pXRZrcgCJcAf4p45P86nDEPP+Q5xo26mf4pzYh9cTOZijE2tO2NPJVVZHQKgnDR86eIR3lEzRrMlC0ug0+NiKUBxQafIAgXP+dVPADePnjU7BIE4RLkvIsH1lBD0pKfzWmCDT5BEC5+zrN4NOAfzeoYPKEHtjMvJtzg8yau60M8/dHXLNu6j9QDxn0jRw/sYceKT5hxV5K5WDk0oNlD0/lgza+Guo4e2MPOJW8xaWCCuUAVacXgJ9/hq6372H/YWO/aT//JqObZADy59qSh/Rv/dcpckQm9vR+u3MGug171Hj7A77s2sOQ/47m7RY65kA+lfbh29yFj+w4fcO+9eY9nhlbWFkEwokTF1dDMzrNjDHN/fYa+karHc2y+lU4TahiiAOwPLeLA0x2J95zxBJsfrsdNC/zE9niG+ZNHcP1lUeYsv2RvmsET/V5kic2/HtqT7mPmvMe4vUlF9WVx8D8jebX5B8zsHOHxOtZOJGnYB4bIUux9X2DJP+/jqmpl129GKU5nw8td+HnEYUYnla35lNdPAPbW4/lwzjj616l4VKY409nz1kNc+9IGcxbQir/Nf5tne9QmvJJPuaK2CII//N9pfzCXXfso/1i0heMG4Sji2PwH/AoHAE3b06lxRTe6kdiUcfzr44Fmt5u+vPjepEqEAyCORvfN4sHo8oXAG3vfN1j71r0VCgeAFlqLzk98Ttcq9ra97xus/eKxSoUDQLPW4ooxc/n6/hBTTgMGLVjAy1dXLhyCEAhV/DqfHXVucxqG56veeYyRHep4vsRBub+y9OnedJqwxVzUL/lpm1n39ouMG3UzVyfWpuXQ+5n88XaOlxjf+0b3epAZNTMMPoDBn85kdJLV4FOK09m/4iP+/cyDPPDsTN5dtcddXyLJyZWJDMDVvPTkIFqEGO/MoNxf2fzV20wb9xD3TX2fr348QJYLtNA2tGxofNPkD3vSGD577RZDvUG5v/Ldi0MZWDORenU6M+DxD1ie7vAqFUebxz5hcqI+PQKw3zaVJ7qUjZ4ACvctZvZjN3J1Ym3q1alNj7vHMmHmYlb9bqe4Yv0TBB/+lGlLRQTlHua3vfvZ9OVkJrz7uznbg33UIvY/qPHts/fyzJdnzNngdxoEh96y0u2FstGMvccctszvTxOvGDX1Uybe8QCfHLGVOd037vsLJjCwpvGJ72/aYh//HcfHtzQ81R1rn+Omm+ewzWoUNX2EcrOP0PibKnR9fzcf94r3pNXU9xidMtHPdKwvr25+n1vrlAnSmYU9aT12HwD2uVvJ7pfoyQs5sojhbR9gRai5HkEIjPP+TXJFN6BRSh+GTVnLwQ3zmJjsXxhYNo5bWt5YrnAARM2axg9Hgwy+yNpdDemUe7oYhEMp3sYnw+70EQ6AqAMzuePRL9npMu1k88OEfm0MwmE99S0v9n3TRzgAopaOpdsrm3w2yPnyGA928V60PcTKJ0b6EQ6Apdy/dI/BU7vFHSS5NTwlxPhWSxD+aPx9K88Z8/b0xQu+Ye3Oo2SZRu3W+tfx94+X+v19S9SBIxyotHWryTDtL4uJS/FKNeBvjat7pSFn3b+ZmF72ZDcTtWosX+2v7MRjaF/POIpIXXwzc+PKX6OImrWErVkV12uf2Jv2XooUmrqKyT+WsyYEsOskR70EyVmzATfm6B2y6fDpsgygpP51zFg0uUpvZwShKlT8bQ4Q8/b0MQ/fy239OtKyfj+eWJ1JgfcXvkq/b2lFt1se4fkZs5j20desWLGGLfsOknrguOHthS8DqJngfZNncXDdPK+0f05k+/4Oxxt7UiuSorynaYc4/m1lu2T/Q2plQ48m1Q2jmeImd7H6hPH1tPeRPa07db3iXdGJXI6+1T9q0ucsy/b+eMOI6Xo/k7/LZ9/GRbw38WbaOM9xxir8pflTxKN8dvDRbQ/x7u/GqUZo2xv5v6wCgw8g5t7p/HfTPtKOfcv81ydwz003cnOPtjRp2phaUaGEVToyb0Ytw5uTIkpOeiUDpU91vCcXijOLI98ZFycD4fbYaLPrHJjJLY++z1a7r2BF1OtIz3Ez+OrINlZNGy4iIgTEeRYPgNU8teOYwaNGNKXNw3lengbc/P5uNk++hc51/d9QirOI4vxiCp3mnIooJm+92XfuWAqyOYnxbc4fQek1Vv0oosTrI41a+ji9rh/KxIV7fd5M4X6FfNmtr/LNro/LX3sShHK4AOIBOP0M8b0GI/bHZzOld7xhCF+YuoZvZkxkzMO3M7BmInUbJNH48ka8c8Q4iqmYGBIGmH3njvd0oXyuplolI6XUAmO/hKZ+SuPLG53FcT1j44yvmaMOrGH+2F6kNLqOwf/8jFW/230E11mjB+Pfeo8bCqv2xkwQuGDiYfp9CwBeSxcTrjW+ycj4sj+X9xjGqKkfsHjBCr9vNPyzj/Rc70uMo3ZH49sYX26lz+UV7/OImn2UNEMTGpI02Y8gGuhDw8SKb07zIqejTn3GZ1VWb1XZwdbpDzOie1MSBz3Lh6nGReripL6MHuW7R0YQyuMCiEdf5nQ0/r5FcR7il+mlawbmNxlZHN/8nVfam8doXuENOZOfjHc5tTpN5N4s7w1WRuyP30OfSnaMwg5OZRoXI9v0nel5TeoP29x+dLRUsrawPJVUr+a6ojtz3WQ/QnuORG2fy5M93mBpnlFYE1p4JQWhEs6zeLRi2IKZho1NAOq+1bwVU96Co43oWv7WPVoxbMEoutsqviH/tfkXQ9pZox9PLR3td5HQOWQOax9sVYXt3P9h7g7jU7qwxV18PnuYXwGxj/+CjdeXbdgqj6hVH7HMsJgcxhVjf+Sjv0V6+cw0oOHjH7P5y6kG75D561n67PV+21MejopfMgmCgT9lh2n21s9YfdC4gGip3Yr2rS8j0XRnKsX7WDyyOQ+tLN3P0IAn1242vIJVnOn8/slcXl+7neMliTRq15shg6+nc13ffRW+u0F924d7y/fGpUv4et3vHK+dwoCevejTpg42KxQVY3iT41sn2Hu8wZr3b6ZlkPF6HKd3sPH7Ffyw+TeCWw+ga/er6HFZFFBEUXGYoV5/O0ztoxZx4DnjrlkoImv7Gn5Ys4LVv5dONxrS+tqr6NKlK1fGqYSmvkuNHk95SgxakMrMzhE4Tu9g05dL+HDp5yxZfwJ7UncGXtOVQbffyU2G6dkhlt/UmLs2VrCvRBC8+FPEo6ooznS2T+lE/zklBr/9hZUcH9m00hGA9cwqltl7cY3Xb0b83uh+trGXh5r6Hq9m3MyEKvyqts60H1kxtGGl7cRdxyd1XmFEFX5Vezb1llKeeFSVMwsH0HrsVrNbEMrlPE9bynAeWc27Y/v4CAdA1KS7mLg20+w2EJS7nU8e7s3eKmhW1KzBJL26iWMV7ScDnEe+Y/rtYzhsziiHY48MZ8Tnhwyb3vxRvH02Ywe9h+8+Wv8ce6QLN761o9L2lqI4izi2f7/ZXSUUZxZH/zueIQ+JcAhnx3kVj+L8bNI3LePjFwbRK2V4Bb9bOcyioTdwz+tL2Z6ea3i1WJx7ktRvXuXRvtfwiGeqUzlRr95I8sBneefHA6Tby95gKM4i8k7sZ93bYxjS4W5eO1rxmxYjh9k8tguXjZnFl1uOke2lg4qziPy0zSx9uiuNb3ieJbZRNKnK0MfNnsn9SO7xMC9/t419pj4AKM4vJj9tJ1s+e41J/RNoc/+7hvwPHx/JM++sZMPRXIrzjW9slGL9mnd+8yqT+tel8yMfV+GnAIJg5A+YtghV4//4PG2k1xuXLHY+U50b3qm6AArCxYQ8b84T9vHtaW5YXD1J2hKvpCBcYoh4nBf6MmeoceNb6IHt/DetmneQIFxSiHicA88t2cLi54f43TNSij3pPl77cY7P3pZ9y0fKH+YRLmlkzeMceHLtSUYnuVCcWZzY+hM/7d7CdzuPAXEkdWpPcnJXul9ZDZvpN3MhRxZxT+sHyvkjP4JwaSDicQ6UisfZYD2ziXf+fhVPrZCFUuHSRh5954BydrpB4b5PmXzDtSIcwv8EMvI4J1ox+MkHuLV7c5o0qkuMLdQwRVGKi7BnHuG3fWv4YdabTN+Q7l1YEC5pRDwEQQgImbYIghAQIh6CIASEiIcgCAEh4iEIQkCIeAiCEBAiHoIgBISIhyAIASHiIQhCQIh4CIIQECIegiAERMDb05MaNzW7BEH4CxGweAiC8NdGpi2CIASEiIcgCAEh4iEIQkCIeAiCEBAiHoIgBISIhyAIASHiIQhCQIh4CIIQECIegiAEhIiHIAgBIeIhCEJAiHgIghAQIh6CIASEiIcgCAEh4iEIQkCIeAiCEBAiHoIgBISIhyAIASHiIQhCQIh4CIIQECIegiAEhIiHIAgBIeIhCEJAnPP/t6VGrdok1q5LSFgYiqKYswWhShRFF1M0wWZ2CwBODUd6EbmfpnFmyTFz7gXjnMTjiuRWRMbEmN2CcNYUxxRT8li42S2YKPw5m8MTtpndF4SgUFvEP8zOqlCjZm1q1ExEAxRNc1skLemA0q5QF87OIWhouDQF0EBT0PzYv3J+UGIoSqaTgv255lvyvBOweCQ1vhxLsBX0yxQr9pysM8yJo4sVCxYUTUNBwYWKBYuP/avnB9exkbX4wk9fAp62tOnYBdwrrmoVrRIURHx8PJGREdhCbRQWF5Gfn09mZiaq0+kTL/avY50xJRTKtKVKqJrCgetWm93nnYDFo22HzgBoij78LMVfulq16jRv0Zzq1RJQFEtZphenT2ewZ9cuTmac9ikv6f/9dElsCcXjI8syhApJvZTFo037FPeTQ0FF83qSlKWxBNGhYwcaNWxoLl4uhw8fZvOWzWhOl099kv7fTTtjHJSIeFSZ1OvXmF3nHYvZUVU0DX3hS9Pc1pi2Wq307dP7rIQDoEGDBvTu3Qer1Vph/ZL+30qDhqqBoiG2CvZiIOCRR8s2HdCXutwrwybbtXt36tWrB8DpjNNUr1bdXIUPZ85kEhcXg8USRFpaGuvWrPGp91K3factZFLLUPcVH2Jtp1E8GWH1ifurWUeMg5LxUV7+8pB80Ph9wDpzxnnnHMSjvf70UNyjEC/boFEjunTRF1RzcrJZ8tUSIiJstG3fgWrVEsjMzMKek0NEVBQJcXHY8/PZtGEjeXl5XNOrJ4mJiQCsW7eetMOHfOovtQ+9t4ThdU0N80feVt677mnmhAT5red82T7TFvJcSwd73+jNfYsSfPIvZnvd696i5+lY9s3sxciF1VCUCcxd3oNmhuyq97sj1oHz0SjPGsilYLfXmYK9YTMiC36gzbZ/++T/mfa3gZeweDRv1dbsAsBiCWLwkMHYbPrKeXp6OsuXLTOHlctVV3WlYVIjAAoKCvhy0SJcLpc5zC8bhr5C9gPJFC5pwpBXGpuzLzDDmPr1nXQ7vYBmA192+0KJSIjGfEteXExk3soeNMPO3jd6MnJhNU/Oda9/wbOtwnBsfYOrH/vG4Es/y89AF49os/uiZnvdF7E3covH1jfN2X8qvw9ab3addwJe88A9XzXbhg3re4QDwGaz+Y0rz4aHl21RDg8Pp27dOn7j0DQc9pNkZpzyHOQ70QC1+DeD/0xWPi4/5c+/BVwaoTHViI+vRlx8FKF+4y4WO5SpX/egGQdZ2/QqbpyjGvp1/u3dUWbt4aQCaEXkZ5zE7tCfRWrxb2fX7+hPVKWcOX5pnj//hcpPSR1Nl5c7o8yf6TffbP/I/IuBgEceV7Zo5W/qyjU9e1K3fn1P3M8//cQvu3f7xJVnGyQ1onv3qz3lDx48wLrVa3zi/NlNt7xC1piWFHzZkCGvXm7Kf4J3V/c0DKvTv27A4H81NeYfXoyypDHZo5OJAcj7iXd6TST08+XcVvcga9qtQFs7kqvDAezsmfERp+99wJ32wl1udlgQaE/w7hrjuQEcW6fT7dEloMG4+d9zm/cU7PBiOo2Y5Wn/puHTyH4wmfCt0wnJuBWtrz61w6u9hV83YEXrw4Z60pfUZ/DU55n63d2GNur+Zn770dOfT72H1jcRx8YpNL93EaExcYRby/K1wkyyC5wo4QnE2oJAg+umL+YfbWwc/7IhQ1653G+9/qwjzoXzEe81D6OdkrKI/rY01i4/QL1eV+NZhnfu5IM1T/OKpbRh41nco1tZfin5y2i1ZZah3ikpX9Df8HOaNNYuH82YoCB33C3M63Yb7YK8QrzOtzPxBbKbNifk2Bw6pX57lu30vi7v+vPJs0aQe6Ib/X5N8OmHUntwyAavQheGgEcemgYamo+NTUgwxO3Zt89vXHn20IGDlJSUeMpXT6jmN86fLUM1+Dc9/R4bV/ckaet0UrpfS0r3Pihv/kJY/8Osee0GY/kGg9DuKODzlF6kdO9DyvVP8VaoBT27Ed233kr1/7Ry1zOEuxeEAvnsmd5aj+9+LSnd32G1pT13L3+Z+4tcaLzEnd3nsTIfOPiFJ67rI1+jacOZ+t333Bb7E/NSerrLr2Bfg0Fs/GaKu7yG+z+C2z2M1myz5zpSRsxCv1Ko1f8wPbc38NT/0VGodcMRNq65m6YrzP7VTM0r8duPpfbD5EQgl30rZ2GLj8MWZOrvsDhiYyIJ8iqnen0K5voqsmia+8nq3+rUo1uvJNJ+6E/rlYNpvXI+W5WWjOg+hcdcLs+TGY6y1hMzmNYr13Ioog87OjzkqU8XjjSvuPlsddWj29VTeMylomhu4dB28sHygWX1WFsyImWc/obIGkQQoIQHVdJOYzm9nbcwr5tbaLzaqmTaiUS/wfz1g/E8F5bAxUNV0VTNx4aFhnliCvLycJWU+I2ryOZkZXnqCI+M1G8cP3Fm677DAZeXfxiruiXCoYW0HTGPrIxTZGWcpsnMv7HoCIS0G8g/c0rQVBcugIMLSenzMP+yZ5CVcZqsrHycqoaqAvzOylbX8be5uOvJpNDxPn9P6cLg2ejxGafIyphOj+XHILIZnYafQlOLyM/I1+t3FZfFFTi5bsZwrg63s+fNDrxsz3SXf5Qrpu0mO7IDt88agKZq4F73cWyeRsqtUzzXccZeBC79lj3+ZR2unxTrqf/2j7eTDaR/FUO/J83+RjR9fr/ffvT0pwqQzsm3kwjxk6+pGpoSRkSIxZMu+2I7/MeXY3GfT9U0/bymw1kCcIiVy27n8Y0Z5K9PJ3/9DNqnngBrS3o1y3CXf57h/3cz93hi0slfP4F56UUQ0YwZTgeo42luAzJ/8oqbwbCXerM4z4Kiauyo14amQVB87HsmbzjlqafTa++zrUTR2+Vw4gK0YndfqeB0uNv5/Qivdk7gnaPe54cdV/akXVA+e9fVN7SVfafJAdRi9zlMh6d/LgICFw80NE3zsarT6YkJCQn1ya+KDQ4N8dShKAqapvqNM9vSJzBe8VuGd6RVOBzfehPFtjhi4hOIiUsgJsbG3dvSgGpUv+uMl+4Uk2kHW3w1d1wYFs+wxIXjaDbOiGruemIJDVLRNAtDPtrI/j3bPYc2oA54+ikEW7yNIICgEL3e+ARiQi1cnhAGuTtZMbsjkaX+uEiS/3OYo0BItYbuNQH3FbryySgO9VxHXERw2XWXHKcwxN3u+ATQZxKoxbkUhfv6NfRRjbkfS60+t1awhFj85vuzZd9rl9/88qyKLjwWTfEIkNmCirIO9neqRUTnWkR2iodT+s0WbxvpKY8WydTxG0l9puyYXCsM3OdQtKOcKgHib2Tn6PuI7FSLiM7x1LTlMGreBJ5Xgmh1+BQngdAGj7Hqbov7fFE0KniTtp9O15tjGgEoeqfq7VyvebUzinBVA+JIqF+AosHi6FrASU4u606mJ64WxJnqM1nv/rnQBCweqqqiaiqa25amc/PsnhhrSDBRkZGGfHO8OW21BBETE+upw26341LLj/dOl1HsyeeyeGKB2jdppG5dxZZ1y9myfjlbNmxAG1QP0FBxuUcWgBJKdHQoiql+XT8UghNjCbF4n38SH+/exsttHPwy7Qrad7mGdl2uQfnmqH5Tqy53+7TS75VX+2+jTrx+WmtUKIrnfMGERqeRng/E12ZUoaPs0iw2YsOthuv3EBxHRJBXfwQrHn+42695+TXVUWF/6t/RmtS477TffL/p0i+2VuI/v5y0pmm43KMQl6riNFkdC1rnSOp4/Fa6njhFOoADXKrKjvozWDbpB4bY0lj7bT+aLxtEy+8HMu1kAaDiVMGlzmXM1Dmsc4AtfiTbei9ie69vWDd+FSu6HsepqgTnP8fgyd+zH6hT50e291rEtt7L2PDMf1kdXIhTdc8jAVStknbaCAnVg1VNxaXeQh0rUJRBatsYrzgV/QkDuPvD3A+l/XMxELB46JNV/alR+m80Dbvd+FPhK65MNuSb483p5BbNDX9UKC83t8J4Y9pdSHOW+fafJgs4viiadp17GI727dvRuFl3bv2kph6rF/Zff2mu6fz9ZnXlCuzs+Wc0g2YHkZ15mpzM0+B+61AW76nBq/wHHMkAsBCkmM6nJJEYAZxO49+hFuNTzqd9pX5npf1RcbyxP+/cmQZE07TrfX7z/aU9uM9pzi8v7WmSe05fOtqzmOb4iqYa8te1qEktQHNP6xbXvYJIjvDjjGu5c0smBRvSyd9wkuwi/Tullw/GGjaHO15KQXl3IK2WDkTZv4c8Iriy41e873RQHBaEjUlcNzkF5dMhtPx+IEr6CaA+3e94lYmushE27nZ6o2j6DW5sv4bmUFC0T0krALBgCdXXaszlS+cmpeVL80v752IgYPFQVc399DDaY2lphrgrmzen2RVX+MT5K39Z48a0btvOUD4tLc0nrrzypV9ejQJPfpv3jnMUqN18NlmZp8nKPOOxmfYir/JeDxJ/9bvzNNP5m1QLA06Q9sLlWKPiiYpNIComHqylAlj6lC37xMvKO/jlVCFEJ9N5RLrhfD8PT6QOUHIqFYfhSeN7/Ybr9mqfX3958WararR46nOW5UFwh8G8klM6mjOf/xnemjnQ4/eIAE7/9fqUd5dz6U9VTdVQNd0a0qX1uuf9pXnEJRCDndQjH6CpQ6kdDBSdYE9GDU51rEFExxqEp9QgNsx9zSqo2lO8OfJ+aoU5STqcTt7GdJI+vot/HS4EEkhoaGdXgzd4+55MEjSNpH1Hyd+QTtLsQXycqY/kGrhc+o4tT7vcbfJqp3f7vQJRNQf7cwshrBmd6ucar6e0Tq3i/rgYCFg8PLda6YW4ber+/RQVF+EsKWHBp5/w2/79dOnajaFDh9G5Sxfi49zjdHf5mOhoUjp15pahw7j6mp6GUYfL4eTXfXvd4abzlXP+MtxfFsuztFyUBo2Hc+C7F4iJjSMmNsFtX2fJr1/wb3uJb73m+ksxxd25Iw24nBYfpmKz6Pnb//EJ2g3u96XuJ1DZyMG7fBDf3jObZfnRNH90Ka/llLZjEnvGtSA2Zx2zb1+oj2TN7ahi+3z85cWbLRrW4PcY1e5rdpPENXu+58Nbjxvyr3/re7Zt7E1rL6Eqw/3GzFyvuX1e5fT1CP+HBy/f7kZTsSfWhtPLaPVLPIr2CatPFUBYMh2HqSS54+5J+YxHarrfU7t9sfH38+Pol4joWJOIjjWp1uIBrk20QdFeNh7UN6s1qpvK2jH3eWJqN3mRtvFAxi7usgQbPsqK2qloZZeLpqBoVhYvXsOvRJJcf5JX3AQOJjfXtwhUtT8uIAGLh/708D0cDgd79+zBGhJCv/4D+HH9OjIzM4mKiSG5RUtKHCWG+OKSEpq3bEmMnz9nuG/fXoqKinzOUd5R9gG5yvwoXD7hWhomL2VvoyFs27TG6+hD482f8/coa9maRznX5sFl9CdPvBZl0VFqD1I99WrNNqJ8fVSP97SlbGhjqFeZy/2tWzDvSBLX7NvoadcVBz+lcfv7eC1CX98ou7bSJ3cl1x2A33y4gsIIUyYwoEkbJv4cTPL43wz9N6WNg92vVKPlyM9R1UnM37SGKe30TQt1BjvZtuyfPJhv/LwrOlyqvgPKr9UAGnJN/2/Z2e8rdvb7Cq3plQSfeJ2GM18jKlbDpTr4/P1uTDpqpeWVaz1xD7re57X0Av0OVjVc6nM02ryXvMhrPTGbhtzDVfmLSHrp7zxQZKXDrgeIOnSCsIT7PDFrb+tNwyNTafjGq5zxHqqir3uUtdO3/Z5QzX2dYU/T97kf+N2rDTv7NeS3HbvIARStnH4otRcBAW8Sa5TUGA3z1hXdWoODGTBwENVr1uTnLVvYtWsXCfHxFBYXkXVGf7PhHX/rbX8jNrZskRQgM+MMixcvxFFc4hNfrlULKbAXQng8Ee4HgwLgyCO3oAQ1OIrY8GCvciUU5ziwxEQQQgmFOXmUBEcRHR7sU79akEmeI5TwmAi8f8ZmceSRXVBCcHg8tmDj+TSCCIuKIcQCCi5K7DkUBpnr1/1FaihhMRGEeNqVR5ElnOioMBTAohZitxeihcUSGWqp0nWftd+v1fvFQRAhUTGEuZdfFEAtziavSEULiyWmdC9McTa5RaqhP/zXa+rfeBXGxfvJ0e3krksYEnuQFYsfZJx7E5etMIf8XUXsTUgg+TJ981XsiZMcSwvhZMtqJIW5AIXYEyc4lmYBIjnVMZJG2LFtzucnr3LgImrXaX4jgegWwcQX2snfVcjeeokkJ+r1QJ6hnOf89WqRnKgBGlG/HyP9TJz7PKqn/b7tKsC2OY+fEqqTfJniqf+Xeh+itYph55b+3HYy0qcfSu2RO34y3C8XgsBHHpqKpql+bUlxMV99uZgzp0/TtkMHunS7ipDQEGrXrWtaYdetalo9zszM5MtFCykuKvJbv7m8ty09DPVbw4mMDiekJIfs7AxysjJ0m51LSWgoVnM9FdRvzndZw4m2WSnJzyAnW683qySYKJtVXx+ppLyqKVgjY7FZCylwl8/JyqXQGkF0ZIg+99VUXPokWr8+P+0zXLdXvsHvtqj+/f7Kq5qV0OhYIkJVinJL26fb3EIIjowlKgRUrYjC7AxyCp1oqkpJfgbZuQU4Kq1ft/o+BvcCqqq5fWVpHQ1lwwnyN54kb1M6GTsK2Vu3FsmNLJ74rFo1qV2niBo7jrvjTrFeTaR2XReoGk5NAzUcrXkIyaczyNt0yh2XwUZbDWo0D8amahSERRJ3mYUGR9I958vfmMdPXufTSve1GNqrp52afj7j9eA+v4am3cObz65id+NVXvWPYGNyXTj1Pa32xvgpb+6PC0vAI4/6DZP0DxP3H2d1K6J3OsgaRNu27Wjdth1Wq5WigkLenTfXJ37Y7SOIjY3F5XKyc9t2ftq6BafD6VOfpP9302q8hmWccXeyN5O7f8OQ2IOsXDiKsVb9b+de2gznnetH0MF0KcXHp9Hszc842TKepLDyX8keuWur2XXeCVg86tVvCO4vgeb+EpSXDrPZ6NLlKqrVrMl/53/kkz/oppsozMtn/bq15Ofn++RL+i+Qjgd1XAJBgAt9u4O3jTlwjBNn4sjoEEF9NJ/8S886se3OYUeT6lwWqrr9TqJ3Z7A5vCbJSUo55XR77J6fzbfkeSdg8ahbrz6goH8HNPcfZtBd+thN0QMlX/Krkp8AjElwz6RVHxt98DjpZ+LI7BBBXc03/9KzKpG/nOZUYZDeD24O16vJFTVdfuLLrKJppN13CYtHzZqJBAVb9c++9DsgVmyAljiwjC1fPMSWWe1kEccm7THfkuedgMUjIiKSGNMbEkEIFC0erGMq/1OVAtg/Okb2mlNm93knYPEAiI+vRojXj9gAfQeL1847HyRf8v3lJygEP1QdVdFnMd6D+dK5PvCXzy/+NY9Tr//mlXvhOCfxALCFRxARYSMoKBhF0fThlabpXxLwGm6VIvmS75uvJgQRPLo6FkV/E6m5/1anpEFzqrjOlFCwLIOc9RlefXlhOWfxEAThr4nF7BAEQagKIh6CIASEiIcgCAEh4iEIQkCIeAiCEBAiHoIgBISIhyAIASHiIQhCQIh4CIIQECIegiAEhIiHIAgBIeIhCEJAiHgIghAQIh6CIASEiIcgCAEh4iEIQkCIeAiCEBAiHoIgBMT/A6uTMStrhbfyAAAAAElFTkSuQmCC;" vertex="1" parent="1">
          <mxGeometry x="1419" y="630" width="271" height="142" as="geometry" />
        </mxCell>
      </root>
    </mxGraphModel>
  </diagram>
  <diagram id="aEDreo66syLNpwicNYJo" name="CI/CD-Pipeline-v2">
    <mxGraphModel dx="635" dy="937" grid="1" gridSize="10" guides="1" tooltips="1" connect="1" arrows="1" fold="1" page="1" pageScale="1" pageWidth="850" pageHeight="1100" math="0" shadow="0">
      <root>
        <mxCell id="0" />
        <mxCell id="1" parent="0" />
        <mxCell id="uf38NYF2ZYIb4gkrRX0d-1" value="&lt;h1 style=&quot;margin-top: 0px;&quot;&gt;CI/CD Pipeline - Phase 2&lt;/h1&gt;" style="text;html=1;whiteSpace=wrap;overflow=hidden;rounded=0;" vertex="1" parent="1">
          <mxGeometry x="850" y="110" width="840" height="120" as="geometry" />
        </mxCell>
        <mxCell id="uf38NYF2ZYIb4gkrRX0d-2" style="edgeStyle=orthogonalEdgeStyle;rounded=0;orthogonalLoop=1;jettySize=auto;html=1;exitX=0.5;exitY=1;exitDx=0;exitDy=0;entryX=0.5;entryY=0;entryDx=0;entryDy=0;" edge="1" parent="1" source="uf38NYF2ZYIb4gkrRX0d-3" target="uf38NYF2ZYIb4gkrRX0d-5">
          <mxGeometry relative="1" as="geometry" />
        </mxCell>
        <mxCell id="uf38NYF2ZYIb4gkrRX0d-3" value="[GitHub Repo Push]" style="text;html=1;align=center;verticalAlign=middle;whiteSpace=wrap;rounded=0;strokeColor=default;fontSize=13;fontColor=default;labelBackgroundColor=none;labelBorderColor=none;fillColor=#666666;" vertex="1" parent="1">
          <mxGeometry x="930" y="270" width="460" height="60" as="geometry" />
        </mxCell>
        <mxCell id="uf38NYF2ZYIb4gkrRX0d-4" style="edgeStyle=orthogonalEdgeStyle;rounded=0;orthogonalLoop=1;jettySize=auto;html=1;exitX=0.5;exitY=1;exitDx=0;exitDy=0;entryX=0.5;entryY=0;entryDx=0;entryDy=0;" edge="1" parent="1" source="uf38NYF2ZYIb4gkrRX0d-5" target="uf38NYF2ZYIb4gkrRX0d-9">
          <mxGeometry relative="1" as="geometry" />
        </mxCell>
        <mxCell id="uf38NYF2ZYIb4gkrRX0d-5" value="[.github/workflows/terraforrm.yml]" style="text;html=1;align=center;verticalAlign=middle;whiteSpace=wrap;rounded=0;strokeColor=default;fontSize=13;fillColor=#007FFF;" vertex="1" parent="1">
          <mxGeometry x="930" y="370" width="460" height="50" as="geometry" />
        </mxCell>
        <mxCell id="uf38NYF2ZYIb4gkrRX0d-6" style="edgeStyle=orthogonalEdgeStyle;rounded=0;orthogonalLoop=1;jettySize=auto;html=1;exitX=0;exitY=1;exitDx=0;exitDy=0;entryX=0;entryY=0;entryDx=0;entryDy=0;" edge="1" parent="1" source="uf38NYF2ZYIb4gkrRX0d-9" target="uf38NYF2ZYIb4gkrRX0d-11">
          <mxGeometry relative="1" as="geometry" />
        </mxCell>
        <mxCell id="uf38NYF2ZYIb4gkrRX0d-7" style="edgeStyle=orthogonalEdgeStyle;rounded=0;orthogonalLoop=1;jettySize=auto;html=1;entryX=0.5;entryY=0;entryDx=0;entryDy=0;exitX=0.346;exitY=1.106;exitDx=0;exitDy=0;exitPerimeter=0;" edge="1" parent="1" source="uf38NYF2ZYIb4gkrRX0d-9" target="uf38NYF2ZYIb4gkrRX0d-13">
          <mxGeometry relative="1" as="geometry">
            <mxPoint x="1160" y="540" as="sourcePoint" />
          </mxGeometry>
        </mxCell>
        <mxCell id="uf38NYF2ZYIb4gkrRX0d-32" style="edgeStyle=orthogonalEdgeStyle;rounded=0;orthogonalLoop=1;jettySize=auto;html=1;exitX=1;exitY=1;exitDx=0;exitDy=0;entryX=1;entryY=0;entryDx=0;entryDy=0;" edge="1" parent="1" source="uf38NYF2ZYIb4gkrRX0d-9" target="uf38NYF2ZYIb4gkrRX0d-31">
          <mxGeometry relative="1" as="geometry" />
        </mxCell>
        <mxCell id="uf38NYF2ZYIb4gkrRX0d-9" value="GitHub Actions" style="text;html=1;align=center;verticalAlign=middle;whiteSpace=wrap;rounded=0;labelBorderColor=none;strokeColor=default;fontSize=13;strokeWidth=5;" vertex="1" parent="1">
          <mxGeometry x="930" y="460" width="460" height="60" as="geometry" />
        </mxCell>
        <mxCell id="uf38NYF2ZYIb4gkrRX0d-10" style="edgeStyle=orthogonalEdgeStyle;rounded=0;orthogonalLoop=1;jettySize=auto;html=1;exitX=0.5;exitY=1;exitDx=0;exitDy=0;entryX=0.5;entryY=0;entryDx=0;entryDy=0;" edge="1" parent="1" source="uf38NYF2ZYIb4gkrRX0d-11" target="uf38NYF2ZYIb4gkrRX0d-14">
          <mxGeometry relative="1" as="geometry" />
        </mxCell>
        <mxCell id="uf38NYF2ZYIb4gkrRX0d-16" style="edgeStyle=orthogonalEdgeStyle;rounded=0;orthogonalLoop=1;jettySize=auto;html=1;exitX=1;exitY=0.5;exitDx=0;exitDy=0;entryX=0;entryY=0.5;entryDx=0;entryDy=0;" edge="1" parent="1" source="uf38NYF2ZYIb4gkrRX0d-11" target="uf38NYF2ZYIb4gkrRX0d-13">
          <mxGeometry relative="1" as="geometry" />
        </mxCell>
        <mxCell id="uf38NYF2ZYIb4gkrRX0d-11" value="terraform fmt" style="text;html=1;align=center;verticalAlign=middle;whiteSpace=wrap;rounded=0;fontSize=13;strokeColor=none;fillColor=#9933FF;" vertex="1" parent="1">
          <mxGeometry x="930" y="560" width="60" height="30" as="geometry" />
        </mxCell>
        <mxCell id="uf38NYF2ZYIb4gkrRX0d-23" style="edgeStyle=orthogonalEdgeStyle;rounded=0;orthogonalLoop=1;jettySize=auto;html=1;exitX=1;exitY=0.5;exitDx=0;exitDy=0;entryX=0;entryY=0.5;entryDx=0;entryDy=0;" edge="1" parent="1" source="uf38NYF2ZYIb4gkrRX0d-12" target="uf38NYF2ZYIb4gkrRX0d-21">
          <mxGeometry relative="1" as="geometry" />
        </mxCell>
        <mxCell id="uf38NYF2ZYIb4gkrRX0d-12" value="terraform plan" style="text;html=1;align=center;verticalAlign=middle;whiteSpace=wrap;rounded=0;fontSize=13;fillColor=#9933FF;" vertex="1" parent="1">
          <mxGeometry x="1190" y="560" width="60" height="30" as="geometry" />
        </mxCell>
        <mxCell id="uf38NYF2ZYIb4gkrRX0d-17" style="edgeStyle=orthogonalEdgeStyle;rounded=0;orthogonalLoop=1;jettySize=auto;html=1;exitX=1;exitY=0.5;exitDx=0;exitDy=0;entryX=0;entryY=0.5;entryDx=0;entryDy=0;" edge="1" parent="1" source="uf38NYF2ZYIb4gkrRX0d-13" target="uf38NYF2ZYIb4gkrRX0d-12">
          <mxGeometry relative="1" as="geometry" />
        </mxCell>
        <mxCell id="uf38NYF2ZYIb4gkrRX0d-13" value="terraform validate" style="text;html=1;align=center;verticalAlign=middle;whiteSpace=wrap;rounded=0;fontSize=13;strokeColor=none;fillColor=#9933FF;" vertex="1" parent="1">
          <mxGeometry x="1060" y="560" width="60" height="30" as="geometry" />
        </mxCell>
        <mxCell id="uf38NYF2ZYIb4gkrRX0d-14" value="CI badge" style="text;html=1;align=center;verticalAlign=middle;whiteSpace=wrap;rounded=0;fontSize=13;" vertex="1" parent="1">
          <mxGeometry x="930" y="630" width="60" height="30" as="geometry" />
        </mxCell>
        <mxCell id="uf38NYF2ZYIb4gkrRX0d-15" value="" style="shape=image;verticalLabelPosition=bottom;labelBackgroundColor=default;verticalAlign=top;aspect=fixed;imageAspect=0;image=data:image/png,iVBORw0KGgoAAAANSUhEUgAAAQ8AAACOCAYAAAAvtI33AAAAAXNSR0IArs4c6QAAAARnQU1BAACxjwv8YQUAAAAJcEhZcwAADsMAAA7DAcdvqGQAACSjSURBVHhe7Z13nBRF+oefnp0NszmQlswKgi45LSAgEkSUJAbAExMqioCniJjQE3+o3KkIgiccYkY9EUFFRSSDJJEoIKukJSywbJrNM9P9+6NnZ6d7ZgODEs73+difl3rrrerqmulvV1XXrEpUXA0NQRCEs8RidgiCIFQFEQ9BEAJCxEMQhIAQ8RAEISBEPARBCAgRD0EQAkLEQxCEgBDxEAQhIEQ8BEEICBEPQRACQsRDEISAEPEQBCEgRDwEQQgIEQ9BEAJCxEMQhIAQ8RAEISBEPARBCAgRD0EQAkLEQxCEgBDxEAQhIEQ8BEEICBEPPwxakEraseOe48AnI8whgvCX5w8QjzHM/TXdcLOVd/y2fw9bFs7mmaFNzJUIgnCJ8QeIR9UJjYilVsoARr22mv3Lp/FgvXxziCAIlwjnVTy8sTUbyrNLFvNoXbs5SxCES4A/RTyyt37G4gVfeI4vvv6RHUdzzWE4E3ow5pXRZrcgCJcAf4p45P86nDEPP+Q5xo26mf4pzYh9cTOZijE2tO2NPJVVZHQKgnDR86eIR3lEzRrMlC0ug0+NiKUBxQafIAgXP+dVPADePnjU7BIE4RLkvIsH1lBD0pKfzWmCDT5BEC5+zrN4NOAfzeoYPKEHtjMvJtzg8yau60M8/dHXLNu6j9QDxn0jRw/sYceKT5hxV5K5WDk0oNlD0/lgza+Guo4e2MPOJW8xaWCCuUAVacXgJ9/hq6372H/YWO/aT//JqObZADy59qSh/Rv/dcpckQm9vR+u3MGug171Hj7A77s2sOQ/47m7RY65kA+lfbh29yFj+w4fcO+9eY9nhlbWFkEwokTF1dDMzrNjDHN/fYa+karHc2y+lU4TahiiAOwPLeLA0x2J95zxBJsfrsdNC/zE9niG+ZNHcP1lUeYsv2RvmsET/V5kic2/HtqT7mPmvMe4vUlF9WVx8D8jebX5B8zsHOHxOtZOJGnYB4bIUux9X2DJP+/jqmpl129GKU5nw8td+HnEYUYnla35lNdPAPbW4/lwzjj616l4VKY409nz1kNc+9IGcxbQir/Nf5tne9QmvJJPuaK2CII//N9pfzCXXfso/1i0heMG4Sji2PwH/AoHAE3b06lxRTe6kdiUcfzr44Fmt5u+vPjepEqEAyCORvfN4sHo8oXAG3vfN1j71r0VCgeAFlqLzk98Ttcq9ra97xus/eKxSoUDQLPW4ooxc/n6/hBTTgMGLVjAy1dXLhyCEAhV/DqfHXVucxqG56veeYyRHep4vsRBub+y9OnedJqwxVzUL/lpm1n39ouMG3UzVyfWpuXQ+5n88XaOlxjf+0b3epAZNTMMPoDBn85kdJLV4FOK09m/4iP+/cyDPPDsTN5dtcddXyLJyZWJDMDVvPTkIFqEGO/MoNxf2fzV20wb9xD3TX2fr348QJYLtNA2tGxofNPkD3vSGD577RZDvUG5v/Ldi0MZWDORenU6M+DxD1ie7vAqFUebxz5hcqI+PQKw3zaVJ7qUjZ4ACvctZvZjN3J1Ym3q1alNj7vHMmHmYlb9bqe4Yv0TBB/+lGlLRQTlHua3vfvZ9OVkJrz7uznbg33UIvY/qPHts/fyzJdnzNngdxoEh96y0u2FstGMvccctszvTxOvGDX1Uybe8QCfHLGVOd037vsLJjCwpvGJ72/aYh//HcfHtzQ81R1rn+Omm+ewzWoUNX2EcrOP0PibKnR9fzcf94r3pNXU9xidMtHPdKwvr25+n1vrlAnSmYU9aT12HwD2uVvJ7pfoyQs5sojhbR9gRai5HkEIjPP+TXJFN6BRSh+GTVnLwQ3zmJjsXxhYNo5bWt5YrnAARM2axg9Hgwy+yNpdDemUe7oYhEMp3sYnw+70EQ6AqAMzuePRL9npMu1k88OEfm0MwmE99S0v9n3TRzgAopaOpdsrm3w2yPnyGA928V60PcTKJ0b6EQ6Apdy/dI/BU7vFHSS5NTwlxPhWSxD+aPx9K88Z8/b0xQu+Ye3Oo2SZRu3W+tfx94+X+v19S9SBIxyotHWryTDtL4uJS/FKNeBvjat7pSFn3b+ZmF72ZDcTtWosX+2v7MRjaF/POIpIXXwzc+PKX6OImrWErVkV12uf2Jv2XooUmrqKyT+WsyYEsOskR70EyVmzATfm6B2y6fDpsgygpP51zFg0uUpvZwShKlT8bQ4Q8/b0MQ/fy239OtKyfj+eWJ1JgfcXvkq/b2lFt1se4fkZs5j20desWLGGLfsOknrguOHthS8DqJngfZNncXDdPK+0f05k+/4Oxxt7UiuSorynaYc4/m1lu2T/Q2plQ48m1Q2jmeImd7H6hPH1tPeRPa07db3iXdGJXI6+1T9q0ucsy/b+eMOI6Xo/k7/LZ9/GRbw38WbaOM9xxir8pflTxKN8dvDRbQ/x7u/GqUZo2xv5v6wCgw8g5t7p/HfTPtKOfcv81ydwz003cnOPtjRp2phaUaGEVToyb0Ytw5uTIkpOeiUDpU91vCcXijOLI98ZFycD4fbYaLPrHJjJLY++z1a7r2BF1OtIz3Ez+OrINlZNGy4iIgTEeRYPgNU8teOYwaNGNKXNw3lengbc/P5uNk++hc51/d9QirOI4vxiCp3mnIooJm+92XfuWAqyOYnxbc4fQek1Vv0oosTrI41a+ji9rh/KxIV7fd5M4X6FfNmtr/LNro/LX3sShHK4AOIBOP0M8b0GI/bHZzOld7xhCF+YuoZvZkxkzMO3M7BmInUbJNH48ka8c8Q4iqmYGBIGmH3njvd0oXyuplolI6XUAmO/hKZ+SuPLG53FcT1j44yvmaMOrGH+2F6kNLqOwf/8jFW/230E11mjB+Pfeo8bCqv2xkwQuGDiYfp9CwBeSxcTrjW+ycj4sj+X9xjGqKkfsHjBCr9vNPyzj/Rc70uMo3ZH49sYX26lz+UV7/OImn2UNEMTGpI02Y8gGuhDw8SKb07zIqejTn3GZ1VWb1XZwdbpDzOie1MSBz3Lh6nGReripL6MHuW7R0YQyuMCiEdf5nQ0/r5FcR7il+mlawbmNxlZHN/8nVfam8doXuENOZOfjHc5tTpN5N4s7w1WRuyP30OfSnaMwg5OZRoXI9v0nel5TeoP29x+dLRUsrawPJVUr+a6ojtz3WQ/QnuORG2fy5M93mBpnlFYE1p4JQWhEs6zeLRi2IKZho1NAOq+1bwVU96Co43oWv7WPVoxbMEoutsqviH/tfkXQ9pZox9PLR3td5HQOWQOax9sVYXt3P9h7g7jU7qwxV18PnuYXwGxj/+CjdeXbdgqj6hVH7HMsJgcxhVjf+Sjv0V6+cw0oOHjH7P5y6kG75D561n67PV+21MejopfMgmCgT9lh2n21s9YfdC4gGip3Yr2rS8j0XRnKsX7WDyyOQ+tLN3P0IAn1242vIJVnOn8/slcXl+7neMliTRq15shg6+nc13ffRW+u0F924d7y/fGpUv4et3vHK+dwoCevejTpg42KxQVY3iT41sn2Hu8wZr3b6ZlkPF6HKd3sPH7Ffyw+TeCWw+ga/er6HFZFFBEUXGYoV5/O0ztoxZx4DnjrlkoImv7Gn5Ys4LVv5dONxrS+tqr6NKlK1fGqYSmvkuNHk95SgxakMrMzhE4Tu9g05dL+HDp5yxZfwJ7UncGXtOVQbffyU2G6dkhlt/UmLs2VrCvRBC8+FPEo6ooznS2T+lE/zklBr/9hZUcH9m00hGA9cwqltl7cY3Xb0b83uh+trGXh5r6Hq9m3MyEKvyqts60H1kxtGGl7cRdxyd1XmFEFX5Vezb1llKeeFSVMwsH0HrsVrNbEMrlPE9bynAeWc27Y/v4CAdA1KS7mLg20+w2EJS7nU8e7s3eKmhW1KzBJL26iWMV7ScDnEe+Y/rtYzhsziiHY48MZ8Tnhwyb3vxRvH02Ywe9h+8+Wv8ce6QLN761o9L2lqI4izi2f7/ZXSUUZxZH/zueIQ+JcAhnx3kVj+L8bNI3LePjFwbRK2V4Bb9bOcyioTdwz+tL2Z6ea3i1WJx7ktRvXuXRvtfwiGeqUzlRr95I8sBneefHA6Tby95gKM4i8k7sZ93bYxjS4W5eO1rxmxYjh9k8tguXjZnFl1uOke2lg4qziPy0zSx9uiuNb3ieJbZRNKnK0MfNnsn9SO7xMC9/t419pj4AKM4vJj9tJ1s+e41J/RNoc/+7hvwPHx/JM++sZMPRXIrzjW9slGL9mnd+8yqT+tel8yMfV+GnAIJg5A+YtghV4//4PG2k1xuXLHY+U50b3qm6AArCxYQ8b84T9vHtaW5YXD1J2hKvpCBcYoh4nBf6MmeoceNb6IHt/DetmneQIFxSiHicA88t2cLi54f43TNSij3pPl77cY7P3pZ9y0fKH+YRLmlkzeMceHLtSUYnuVCcWZzY+hM/7d7CdzuPAXEkdWpPcnJXul9ZDZvpN3MhRxZxT+sHyvkjP4JwaSDicQ6UisfZYD2ziXf+fhVPrZCFUuHSRh5954BydrpB4b5PmXzDtSIcwv8EMvI4J1ox+MkHuLV7c5o0qkuMLdQwRVGKi7BnHuG3fWv4YdabTN+Q7l1YEC5pRDwEQQgImbYIghAQIh6CIASEiIcgCAEh4iEIQkCIeAiCEBAiHoIgBISIhyAIASHiIQhCQIh4CIIQECIegiAERMDb05MaNzW7BEH4CxGweAiC8NdGpi2CIASEiIcgCAEh4iEIQkCIeAiCEBAiHoIgBISIhyAIASHiIQhCQIh4CIIQECIegiAEhIiHIAgBIeIhCEJAiHgIghAQIh6CIASEiIcgCAEh4iEIQkCIeAiCEBAiHoIgBISIhyAIASHiIQhCQIh4CIIQECIegiAEhIiHIAgBIeIhCEJAnPP/t6VGrdok1q5LSFgYiqKYswWhShRFF1M0wWZ2CwBODUd6EbmfpnFmyTFz7gXjnMTjiuRWRMbEmN2CcNYUxxRT8li42S2YKPw5m8MTtpndF4SgUFvEP8zOqlCjZm1q1ExEAxRNc1skLemA0q5QF87OIWhouDQF0EBT0PzYv3J+UGIoSqaTgv255lvyvBOweCQ1vhxLsBX0yxQr9pysM8yJo4sVCxYUTUNBwYWKBYuP/avnB9exkbX4wk9fAp62tOnYBdwrrmoVrRIURHx8PJGREdhCbRQWF5Gfn09mZiaq0+kTL/avY50xJRTKtKVKqJrCgetWm93nnYDFo22HzgBoij78LMVfulq16jRv0Zzq1RJQFEtZphenT2ewZ9cuTmac9ikv6f/9dElsCcXjI8syhApJvZTFo037FPeTQ0FF83qSlKWxBNGhYwcaNWxoLl4uhw8fZvOWzWhOl099kv7fTTtjHJSIeFSZ1OvXmF3nHYvZUVU0DX3hS9Pc1pi2Wq307dP7rIQDoEGDBvTu3Qer1Vph/ZL+30qDhqqBoiG2CvZiIOCRR8s2HdCXutwrwybbtXt36tWrB8DpjNNUr1bdXIUPZ85kEhcXg8USRFpaGuvWrPGp91K3factZFLLUPcVH2Jtp1E8GWH1ifurWUeMg5LxUV7+8pB80Ph9wDpzxnnnHMSjvf70UNyjEC/boFEjunTRF1RzcrJZ8tUSIiJstG3fgWrVEsjMzMKek0NEVBQJcXHY8/PZtGEjeXl5XNOrJ4mJiQCsW7eetMOHfOovtQ+9t4ThdU0N80feVt677mnmhAT5red82T7TFvJcSwd73+jNfYsSfPIvZnvd696i5+lY9s3sxciF1VCUCcxd3oNmhuyq97sj1oHz0SjPGsilYLfXmYK9YTMiC36gzbZ/++T/mfa3gZeweDRv1dbsAsBiCWLwkMHYbPrKeXp6OsuXLTOHlctVV3WlYVIjAAoKCvhy0SJcLpc5zC8bhr5C9gPJFC5pwpBXGpuzLzDDmPr1nXQ7vYBmA192+0KJSIjGfEteXExk3soeNMPO3jd6MnJhNU/Oda9/wbOtwnBsfYOrH/vG4Es/y89AF49os/uiZnvdF7E3covH1jfN2X8qvw9ab3addwJe88A9XzXbhg3re4QDwGaz+Y0rz4aHl21RDg8Pp27dOn7j0DQc9pNkZpzyHOQ70QC1+DeD/0xWPi4/5c+/BVwaoTHViI+vRlx8FKF+4y4WO5SpX/egGQdZ2/QqbpyjGvp1/u3dUWbt4aQCaEXkZ5zE7tCfRWrxb2fX7+hPVKWcOX5pnj//hcpPSR1Nl5c7o8yf6TffbP/I/IuBgEceV7Zo5W/qyjU9e1K3fn1P3M8//cQvu3f7xJVnGyQ1onv3qz3lDx48wLrVa3zi/NlNt7xC1piWFHzZkCGvXm7Kf4J3V/c0DKvTv27A4H81NeYfXoyypDHZo5OJAcj7iXd6TST08+XcVvcga9qtQFs7kqvDAezsmfERp+99wJ32wl1udlgQaE/w7hrjuQEcW6fT7dEloMG4+d9zm/cU7PBiOo2Y5Wn/puHTyH4wmfCt0wnJuBWtrz61w6u9hV83YEXrw4Z60pfUZ/DU55n63d2GNur+Zn770dOfT72H1jcRx8YpNL93EaExcYRby/K1wkyyC5wo4QnE2oJAg+umL+YfbWwc/7IhQ1653G+9/qwjzoXzEe81D6OdkrKI/rY01i4/QL1eV+NZhnfu5IM1T/OKpbRh41nco1tZfin5y2i1ZZah3ikpX9Df8HOaNNYuH82YoCB33C3M63Yb7YK8QrzOtzPxBbKbNifk2Bw6pX57lu30vi7v+vPJs0aQe6Ib/X5N8OmHUntwyAavQheGgEcemgYamo+NTUgwxO3Zt89vXHn20IGDlJSUeMpXT6jmN86fLUM1+Dc9/R4bV/ckaet0UrpfS0r3Pihv/kJY/8Osee0GY/kGg9DuKODzlF6kdO9DyvVP8VaoBT27Ed233kr1/7Ry1zOEuxeEAvnsmd5aj+9+LSnd32G1pT13L3+Z+4tcaLzEnd3nsTIfOPiFJ67rI1+jacOZ+t333Bb7E/NSerrLr2Bfg0Fs/GaKu7yG+z+C2z2M1myz5zpSRsxCv1Ko1f8wPbc38NT/0VGodcMRNq65m6YrzP7VTM0r8duPpfbD5EQgl30rZ2GLj8MWZOrvsDhiYyIJ8iqnen0K5voqsmia+8nq3+rUo1uvJNJ+6E/rlYNpvXI+W5WWjOg+hcdcLs+TGY6y1hMzmNYr13Ioog87OjzkqU8XjjSvuPlsddWj29VTeMylomhu4dB28sHygWX1WFsyImWc/obIGkQQoIQHVdJOYzm9nbcwr5tbaLzaqmTaiUS/wfz1g/E8F5bAxUNV0VTNx4aFhnliCvLycJWU+I2ryOZkZXnqCI+M1G8cP3Fm677DAZeXfxiruiXCoYW0HTGPrIxTZGWcpsnMv7HoCIS0G8g/c0rQVBcugIMLSenzMP+yZ5CVcZqsrHycqoaqAvzOylbX8be5uOvJpNDxPn9P6cLg2ejxGafIyphOj+XHILIZnYafQlOLyM/I1+t3FZfFFTi5bsZwrg63s+fNDrxsz3SXf5Qrpu0mO7IDt88agKZq4F73cWyeRsqtUzzXccZeBC79lj3+ZR2unxTrqf/2j7eTDaR/FUO/J83+RjR9fr/ffvT0pwqQzsm3kwjxk6+pGpoSRkSIxZMu+2I7/MeXY3GfT9U0/bymw1kCcIiVy27n8Y0Z5K9PJ3/9DNqnngBrS3o1y3CXf57h/3cz93hi0slfP4F56UUQ0YwZTgeo42luAzJ/8oqbwbCXerM4z4Kiauyo14amQVB87HsmbzjlqafTa++zrUTR2+Vw4gK0YndfqeB0uNv5/Qivdk7gnaPe54cdV/akXVA+e9fVN7SVfafJAdRi9zlMh6d/LgICFw80NE3zsarT6YkJCQn1ya+KDQ4N8dShKAqapvqNM9vSJzBe8VuGd6RVOBzfehPFtjhi4hOIiUsgJsbG3dvSgGpUv+uMl+4Uk2kHW3w1d1wYFs+wxIXjaDbOiGruemIJDVLRNAtDPtrI/j3bPYc2oA54+ikEW7yNIICgEL3e+ARiQi1cnhAGuTtZMbsjkaX+uEiS/3OYo0BItYbuNQH3FbryySgO9VxHXERw2XWXHKcwxN3u+ATQZxKoxbkUhfv6NfRRjbkfS60+t1awhFj85vuzZd9rl9/88qyKLjwWTfEIkNmCirIO9neqRUTnWkR2iodT+s0WbxvpKY8WydTxG0l9puyYXCsM3OdQtKOcKgHib2Tn6PuI7FSLiM7x1LTlMGreBJ5Xgmh1+BQngdAGj7Hqbov7fFE0KniTtp9O15tjGgEoeqfq7VyvebUzinBVA+JIqF+AosHi6FrASU4u606mJ64WxJnqM1nv/rnQBCweqqqiaiqa25amc/PsnhhrSDBRkZGGfHO8OW21BBETE+upw26341LLj/dOl1HsyeeyeGKB2jdppG5dxZZ1y9myfjlbNmxAG1QP0FBxuUcWgBJKdHQoiql+XT8UghNjCbF4n38SH+/exsttHPwy7Qrad7mGdl2uQfnmqH5Tqy53+7TS75VX+2+jTrx+WmtUKIrnfMGERqeRng/E12ZUoaPs0iw2YsOthuv3EBxHRJBXfwQrHn+42695+TXVUWF/6t/RmtS477TffL/p0i+2VuI/v5y0pmm43KMQl6riNFkdC1rnSOp4/Fa6njhFOoADXKrKjvozWDbpB4bY0lj7bT+aLxtEy+8HMu1kAaDiVMGlzmXM1Dmsc4AtfiTbei9ie69vWDd+FSu6HsepqgTnP8fgyd+zH6hT50e291rEtt7L2PDMf1kdXIhTdc8jAVStknbaCAnVg1VNxaXeQh0rUJRBatsYrzgV/QkDuPvD3A+l/XMxELB46JNV/alR+m80Dbvd+FPhK65MNuSb483p5BbNDX9UKC83t8J4Y9pdSHOW+fafJgs4viiadp17GI727dvRuFl3bv2kph6rF/Zff2mu6fz9ZnXlCuzs+Wc0g2YHkZ15mpzM0+B+61AW76nBq/wHHMkAsBCkmM6nJJEYAZxO49+hFuNTzqd9pX5npf1RcbyxP+/cmQZE07TrfX7z/aU9uM9pzi8v7WmSe05fOtqzmOb4iqYa8te1qEktQHNP6xbXvYJIjvDjjGu5c0smBRvSyd9wkuwi/Tullw/GGjaHO15KQXl3IK2WDkTZv4c8Iriy41e873RQHBaEjUlcNzkF5dMhtPx+IEr6CaA+3e94lYmushE27nZ6o2j6DW5sv4bmUFC0T0krALBgCdXXaszlS+cmpeVL80v752IgYPFQVc399DDaY2lphrgrmzen2RVX+MT5K39Z48a0btvOUD4tLc0nrrzypV9ejQJPfpv3jnMUqN18NlmZp8nKPOOxmfYir/JeDxJ/9bvzNNP5m1QLA06Q9sLlWKPiiYpNIComHqylAlj6lC37xMvKO/jlVCFEJ9N5RLrhfD8PT6QOUHIqFYfhSeN7/Ybr9mqfX3958WararR46nOW5UFwh8G8klM6mjOf/xnemjnQ4/eIAE7/9fqUd5dz6U9VTdVQNd0a0qX1uuf9pXnEJRCDndQjH6CpQ6kdDBSdYE9GDU51rEFExxqEp9QgNsx9zSqo2lO8OfJ+aoU5STqcTt7GdJI+vot/HS4EEkhoaGdXgzd4+55MEjSNpH1Hyd+QTtLsQXycqY/kGrhc+o4tT7vcbfJqp3f7vQJRNQf7cwshrBmd6ucar6e0Tq3i/rgYCFg8PLda6YW4ber+/RQVF+EsKWHBp5/w2/79dOnajaFDh9G5Sxfi49zjdHf5mOhoUjp15pahw7j6mp6GUYfL4eTXfXvd4abzlXP+MtxfFsuztFyUBo2Hc+C7F4iJjSMmNsFtX2fJr1/wb3uJb73m+ksxxd25Iw24nBYfpmKz6Pnb//EJ2g3u96XuJ1DZyMG7fBDf3jObZfnRNH90Ka/llLZjEnvGtSA2Zx2zb1+oj2TN7ahi+3z85cWbLRrW4PcY1e5rdpPENXu+58Nbjxvyr3/re7Zt7E1rL6Eqw/3GzFyvuX1e5fT1CP+HBy/f7kZTsSfWhtPLaPVLPIr2CatPFUBYMh2HqSS54+5J+YxHarrfU7t9sfH38+Pol4joWJOIjjWp1uIBrk20QdFeNh7UN6s1qpvK2jH3eWJqN3mRtvFAxi7usgQbPsqK2qloZZeLpqBoVhYvXsOvRJJcf5JX3AQOJjfXtwhUtT8uIAGLh/708D0cDgd79+zBGhJCv/4D+HH9OjIzM4mKiSG5RUtKHCWG+OKSEpq3bEmMnz9nuG/fXoqKinzOUd5R9gG5yvwoXD7hWhomL2VvoyFs27TG6+hD482f8/coa9maRznX5sFl9CdPvBZl0VFqD1I99WrNNqJ8fVSP97SlbGhjqFeZy/2tWzDvSBLX7NvoadcVBz+lcfv7eC1CX98ou7bSJ3cl1x2A33y4gsIIUyYwoEkbJv4cTPL43wz9N6WNg92vVKPlyM9R1UnM37SGKe30TQt1BjvZtuyfPJhv/LwrOlyqvgPKr9UAGnJN/2/Z2e8rdvb7Cq3plQSfeJ2GM18jKlbDpTr4/P1uTDpqpeWVaz1xD7re57X0Av0OVjVc6nM02ryXvMhrPTGbhtzDVfmLSHrp7zxQZKXDrgeIOnSCsIT7PDFrb+tNwyNTafjGq5zxHqqir3uUtdO3/Z5QzX2dYU/T97kf+N2rDTv7NeS3HbvIARStnH4otRcBAW8Sa5TUGA3z1hXdWoODGTBwENVr1uTnLVvYtWsXCfHxFBYXkXVGf7PhHX/rbX8jNrZskRQgM+MMixcvxFFc4hNfrlULKbAXQng8Ee4HgwLgyCO3oAQ1OIrY8GCvciUU5ziwxEQQQgmFOXmUBEcRHR7sU79akEmeI5TwmAi8f8ZmceSRXVBCcHg8tmDj+TSCCIuKIcQCCi5K7DkUBpnr1/1FaihhMRGEeNqVR5ElnOioMBTAohZitxeihcUSGWqp0nWftd+v1fvFQRAhUTGEuZdfFEAtziavSEULiyWmdC9McTa5RaqhP/zXa+rfeBXGxfvJ0e3krksYEnuQFYsfZJx7E5etMIf8XUXsTUgg+TJ981XsiZMcSwvhZMtqJIW5AIXYEyc4lmYBIjnVMZJG2LFtzucnr3LgImrXaX4jgegWwcQX2snfVcjeeokkJ+r1QJ6hnOf89WqRnKgBGlG/HyP9TJz7PKqn/b7tKsC2OY+fEqqTfJniqf+Xeh+itYph55b+3HYy0qcfSu2RO34y3C8XgsBHHpqKpql+bUlxMV99uZgzp0/TtkMHunS7ipDQEGrXrWtaYdetalo9zszM5MtFCykuKvJbv7m8ty09DPVbw4mMDiekJIfs7AxysjJ0m51LSWgoVnM9FdRvzndZw4m2WSnJzyAnW683qySYKJtVXx+ppLyqKVgjY7FZCylwl8/JyqXQGkF0ZIg+99VUXPokWr8+P+0zXLdXvsHvtqj+/f7Kq5qV0OhYIkJVinJL26fb3EIIjowlKgRUrYjC7AxyCp1oqkpJfgbZuQU4Kq1ft/o+BvcCqqq5fWVpHQ1lwwnyN54kb1M6GTsK2Vu3FsmNLJ74rFo1qV2niBo7jrvjTrFeTaR2XReoGk5NAzUcrXkIyaczyNt0yh2XwUZbDWo0D8amahSERRJ3mYUGR9I958vfmMdPXufTSve1GNqrp52afj7j9eA+v4am3cObz65id+NVXvWPYGNyXTj1Pa32xvgpb+6PC0vAI4/6DZP0DxP3H2d1K6J3OsgaRNu27Wjdth1Wq5WigkLenTfXJ37Y7SOIjY3F5XKyc9t2ftq6BafD6VOfpP9302q8hmWccXeyN5O7f8OQ2IOsXDiKsVb9b+de2gznnetH0MF0KcXHp9Hszc842TKepLDyX8keuWur2XXeCVg86tVvCO4vgeb+EpSXDrPZ6NLlKqrVrMl/53/kkz/oppsozMtn/bq15Ofn++RL+i+Qjgd1XAJBgAt9u4O3jTlwjBNn4sjoEEF9NJ/8S886se3OYUeT6lwWqrr9TqJ3Z7A5vCbJSUo55XR77J6fzbfkeSdg8ahbrz6goH8HNPcfZtBd+thN0QMlX/Krkp8AjElwz6RVHxt98DjpZ+LI7BBBXc03/9KzKpG/nOZUYZDeD24O16vJFTVdfuLLrKJppN13CYtHzZqJBAVb9c++9DsgVmyAljiwjC1fPMSWWe1kEccm7THfkuedgMUjIiKSGNMbEkEIFC0erGMq/1OVAtg/Okb2mlNm93knYPEAiI+vRojXj9gAfQeL1847HyRf8v3lJygEP1QdVdFnMd6D+dK5PvCXzy/+NY9Tr//mlXvhOCfxALCFRxARYSMoKBhF0fThlabpXxLwGm6VIvmS75uvJgQRPLo6FkV/E6m5/1anpEFzqrjOlFCwLIOc9RlefXlhOWfxEAThr4nF7BAEQagKIh6CIASEiIcgCAEh4iEIQkCIeAiCEBAiHoIgBISIhyAIASHiIQhCQIh4CIIQECIegiAEhIiHIAgBIeIhCEJAiHgIghAQIh6CIASEiIcgCAEh4iEIQkCIeAiCEBAiHoIgBMT/A6uTMStrhbfyAAAAAElFTkSuQmCC;" vertex="1" parent="1">
          <mxGeometry x="1390" y="950" width="271" height="142" as="geometry" />
        </mxCell>
        <mxCell id="uf38NYF2ZYIb4gkrRX0d-20" style="edgeStyle=orthogonalEdgeStyle;rounded=0;orthogonalLoop=1;jettySize=auto;html=1;entryX=0.5;entryY=0;entryDx=0;entryDy=0;exitX=0.346;exitY=1.106;exitDx=0;exitDy=0;exitPerimeter=0;" edge="1" parent="1">
          <mxGeometry relative="1" as="geometry">
            <mxPoint x="1219.5" y="526" as="sourcePoint" />
            <mxPoint x="1220.5" y="560" as="targetPoint" />
          </mxGeometry>
        </mxCell>
        <mxCell id="uf38NYF2ZYIb4gkrRX0d-21" value="tfplan.json artifact" style="text;html=1;align=center;verticalAlign=middle;whiteSpace=wrap;rounded=0;fontSize=13;fillColor=#9933FF;" vertex="1" parent="1">
          <mxGeometry x="1280" y="560" width="110" height="30" as="geometry" />
        </mxCell>
        <mxCell id="uf38NYF2ZYIb4gkrRX0d-24" style="edgeStyle=orthogonalEdgeStyle;rounded=0;orthogonalLoop=1;jettySize=auto;html=1;entryX=0.5;entryY=0;entryDx=0;entryDy=0;exitX=0.346;exitY=1.106;exitDx=0;exitDy=0;exitPerimeter=0;" edge="1" parent="1">
          <mxGeometry relative="1" as="geometry">
            <mxPoint x="1334.5" y="526" as="sourcePoint" />
            <mxPoint x="1335.5" y="560" as="targetPoint" />
          </mxGeometry>
        </mxCell>
        <mxCell id="uf38NYF2ZYIb4gkrRX0d-25" value="status checks" style="text;html=1;align=center;verticalAlign=middle;whiteSpace=wrap;rounded=0;fontSize=13;" vertex="1" parent="1">
          <mxGeometry x="1045" y="630" width="90" height="30" as="geometry" />
        </mxCell>
        <mxCell id="uf38NYF2ZYIb4gkrRX0d-27" value="comment PR/push" style="text;html=1;align=center;verticalAlign=middle;whiteSpace=wrap;rounded=0;fontSize=13;fillColor=#FF33FF;" vertex="1" parent="1">
          <mxGeometry x="1280" y="630" width="110" height="30" as="geometry" />
        </mxCell>
        <mxCell id="uf38NYF2ZYIb4gkrRX0d-29" style="edgeStyle=orthogonalEdgeStyle;rounded=0;orthogonalLoop=1;jettySize=auto;html=1;exitX=0.5;exitY=1;exitDx=0;exitDy=0;entryX=0.5;entryY=0;entryDx=0;entryDy=0;" edge="1" parent="1">
          <mxGeometry relative="1" as="geometry">
            <mxPoint x="1089.5" y="590" as="sourcePoint" />
            <mxPoint x="1089.5" y="630" as="targetPoint" />
          </mxGeometry>
        </mxCell>
        <mxCell id="uf38NYF2ZYIb4gkrRX0d-30" style="edgeStyle=orthogonalEdgeStyle;rounded=0;orthogonalLoop=1;jettySize=auto;html=1;exitX=0.5;exitY=1;exitDx=0;exitDy=0;entryX=0.5;entryY=0;entryDx=0;entryDy=0;" edge="1" parent="1">
          <mxGeometry relative="1" as="geometry">
            <mxPoint x="1334.5" y="590" as="sourcePoint" />
            <mxPoint x="1334.5" y="630" as="targetPoint" />
            <Array as="points">
              <mxPoint x="1334.5" y="611" />
              <mxPoint x="1335.5" y="611" />
              <mxPoint x="1335.5" y="610" />
              <mxPoint x="1334.5" y="610" />
            </Array>
          </mxGeometry>
        </mxCell>
        <mxCell id="uf38NYF2ZYIb4gkrRX0d-35" style="edgeStyle=orthogonalEdgeStyle;rounded=0;orthogonalLoop=1;jettySize=auto;html=1;exitX=1;exitY=1;exitDx=0;exitDy=0;entryX=1;entryY=0;entryDx=0;entryDy=0;" edge="1" parent="1" source="uf38NYF2ZYIb4gkrRX0d-31" target="uf38NYF2ZYIb4gkrRX0d-34">
          <mxGeometry relative="1" as="geometry" />
        </mxCell>
        <mxCell id="uf38NYF2ZYIb4gkrRX0d-31" value="Slack Notify: Success or Failure with tfplan msg" style="text;html=1;align=center;verticalAlign=middle;whiteSpace=wrap;rounded=0;fillColor=#FF3333;" vertex="1" parent="1">
          <mxGeometry x="990" y="730" width="400" height="30" as="geometry" />
        </mxCell>
        <mxCell id="uf38NYF2ZYIb4gkrRX0d-33" value="Save Terraform Logs" style="text;html=1;align=center;verticalAlign=middle;whiteSpace=wrap;rounded=0;" vertex="1" parent="1">
          <mxGeometry x="1045" y="800" width="215" height="30" as="geometry" />
        </mxCell>
        <mxCell id="uf38NYF2ZYIb4gkrRX0d-34" value="Artifact upload" style="text;html=1;align=center;verticalAlign=middle;whiteSpace=wrap;rounded=0;fillColor=#EA6B66;" vertex="1" parent="1">
          <mxGeometry x="1250" y="800" width="140" height="30" as="geometry" />
        </mxCell>
      </root>
    </mxGraphModel>
  </diagram>
  <diagram id="B-jH-AEgQdkRzTM_DiKE" name="Observability-Flow">
    <mxGraphModel dx="891" dy="562" grid="1" gridSize="10" guides="1" tooltips="1" connect="1" arrows="1" fold="1" page="1" pageScale="1" pageWidth="850" pageHeight="1100" background="light-dark(#FFFFFF,#121212)" math="0" shadow="0">
      <root>
        <mxCell id="0" />
        <mxCell id="1" parent="0" />
      </root>
    </mxGraphModel>
  </diagram>
</mxfile>
